<?xml version="1.0" encoding="utf-8"?>
<svg version="1.1" id="Evocracy" xmlns="http://www.w3.org/2000/svg" xmlns:xlink="http://www.w3.org/1999/xlink" x="0px" y="0px"
	 viewBox="-173 -116 1000 1000" style="enable-background:new -173 -116 1000 1000;" xml:space="preserve">
<style type="text/css">
	.st0{fill:#0A0A0A;}
	.st1{fill:#FFFFFF;}
	.st2{fill:none;stroke:#FFFFFF;stroke-width:36;}
</style>
<rect id="BG" x="-173" y="-116" class="st0" width="1000" height="1000"/>
<g id="Symbol">
	<path id="Outer_Core" class="st1" d="M766.5,198.3c-24-56.8-58.4-107.8-102.2-151.6C620.5,2.9,569.5-31.5,512.7-55.5
		C453.9-80.4,391.4-93,327-93S200.1-80.4,141.3-55.5C84.5-31.5,33.5,2.9-10.3,46.7c-43.8,43.8-78.2,94.8-102.2,151.6
		C-137.4,257.1-150,319.6-150,384s12.6,126.9,37.5,185.7c24,56.8,58.4,107.8,102.2,151.6c43.8,43.8,94.8,78.2,151.6,102.2
		c53.3,22.6,109.6,35,167.7,37.2v-36C74.1,815.2-114,621.1-114,384c0-243.2,197.8-441,441-441c243.2,0,441,197.8,441,441
		c0,237.1-188.1,431.2-423,440.6v36c58-2.1,114.4-14.6,167.7-37.2c56.8-24,107.8-58.4,151.6-102.2s78.2-94.8,102.2-151.6
		C791.4,510.9,804,448.4,804,384S791.4,257.1,766.5,198.3z"/>
	<circle id="Core" class="st2" cx="327" cy="384" r="400"/>
	<line id="Line" class="st2" x1="327" y1="-16" x2="327" y2="784"/>
	<path id="Triangle" class="st2" d="M137.6,384L327,56l189.4,328H137.6z"/>
</g>
</svg>
